<svg xmlns="http://www.w3.org/2000/svg" viewBox="0 0 512 512" role="img" aria-label="SmartPark">
  <rect width="512" height="512" rx="0" fill="#00452f"/>
  <path
    fill="#ffffff"
    d="M389 60H214c-83 0-150 67-150 150s67 150 150 150h92c28 0 50-22 50-50s-22-50-50-50H181c-28 0-50-22-50-50s22-50 50-50h208c18 0 32-14 32-32V92c0-18-14-32-32-32Zm-68 152H181c-57 0-102 46-102 102s45 102 102 102h125c57 0 102-46 102-102s-45-102-102-102h-92c-28 0-50-22-50-50s22-50 50-50h175V60H214C131 60 64 127 64 210s67 150 150 150h92c28 0 50-22 50-50s-22-50-50-50H181c-28 0-50-22-50-50s22-50 50-50h140c14 0 26 12 26 26s-12 26-26 26Z"
  />
  <path
    fill="#ffffff"
    d="M148 314h69v138c0 18-14 32-32 32h-37V314Z"
  />
</svg>
